<svg width="113" height="58" viewBox="0 0 113 58" fill="none" xmlns="http://www.w3.org/2000/svg">
<mask id="mask0_86_2236" style="mask-type:luminance" maskUnits="userSpaceOnUse" x="0" y="9" width="57" height="21">
<path d="M0.30127 9.43089H56.4999V29.101H0.30127V9.43089Z" fill="white"/>
</mask>
<g mask="url(#mask0_86_2236)">
<path d="M56.3693 14.4137L47.0315 19.2281L37.6866 24.0435V24.0488L28.3476 28.8632L19.0098 24.0488V24.0435L9.66495 19.2281L0.327148 14.4137L9.66495 9.5993L19.0098 14.4137L28.3476 19.2281L37.6866 14.4137L47.0315 9.5993L56.3693 14.4137Z" fill="#3D1400"/>
</g>
<mask id="mask1_86_2236" style="mask-type:luminance" maskUnits="userSpaceOnUse" x="0" y="0" width="57" height="44">
<path d="M0.30127 0H56.4999V43.3821H0.30127V0Z" fill="white"/>
</mask>
<g mask="url(#mask1_86_2236)">
<path d="M37.6866 4.77861V4.78492L28.3476 9.59931L19.0098 4.78492L28.3476 -0.0357819L37.6866 4.77861ZM9.66495 19.2281V38.4983L0.327148 43.3126V14.4137L9.66495 19.2281ZM56.3693 14.4137V43.3126L47.0315 38.4983V19.2281L56.3693 14.4137Z" fill="url(#paint0_linear_86_2236)"/>
</g>
<mask id="mask2_86_2236" style="mask-type:luminance" maskUnits="userSpaceOnUse" x="0" y="38" width="57" height="20">
<path d="M0.30127 38.2625H56.4999V57.7632H0.30127V38.2625Z" fill="white"/>
</mask>
<g mask="url(#mask2_86_2236)">
<path d="M56.3693 43.3126L47.0315 48.1281L37.6866 52.9477L28.3476 57.7632L19.0098 52.9477L9.66495 48.1281L0.327148 43.3126L9.66495 38.4982H9.67201L19.0098 43.3126L28.3476 48.1281L37.6866 43.3126L47.0315 38.4982L56.3693 43.3126Z" fill="#3D1400"/>
</g>
<path d="M71.7573 37.1563L81.646 28.3148V27.478L76.2738 32.2808V32.3766H76.1667L70.8227 37.1563H71.7573ZM73.0945 37.1563L81.646 29.5094V28.6495L72.1587 37.1563H73.0945ZM74.4034 37.1563L81.646 30.6799V29.8442L73.4676 37.1563H74.4034ZM75.7394 37.1563L81.646 31.8756V31.0146L74.8048 37.1563H75.7394ZM76.2738 29.581L81.646 24.7782V23.9172L76.2738 28.7211V29.581ZM76.2738 30.7515L81.646 25.9486V25.1119L76.2738 29.9157V30.7515ZM76.2738 31.9472L81.646 27.1433V26.2834L76.2738 31.0862V31.9472ZM76.2738 28.3864L81.646 23.5825V22.8183L81.6189 22.7699L76.2738 27.5496V28.3864ZM63.7402 36.0574L69.0853 31.2777V30.441L63.7402 35.2206V36.0574ZM66.6005 25.2076L71.9445 20.428H71.0099L65.6647 25.2076H66.6005ZM63.7402 33.6912L69.0853 28.9116V28.0759L63.7402 32.8545V33.6912ZM71.8915 25.2076L77.2366 20.428H76.3009L70.9557 25.2076H71.8915ZM73.2275 25.2076L78.5726 20.428H77.6369L72.2917 25.2076H73.2275ZM67.9365 25.2076L73.2805 20.428H72.3459L67.0007 25.2076H67.9365ZM69.2454 25.2076L74.5906 20.428H73.6548L68.3108 25.2076H69.2454ZM70.5814 25.2076L75.9266 20.428H74.992L69.6468 25.2076H70.5814ZM63.9544 25.2076L69.2996 20.428H68.3638L63.0187 25.2076H63.9544ZM65.2904 25.2076L70.6356 20.428H69.6998L64.3546 25.2076H65.2904ZM63.7402 32.5197L69.0853 27.7169V26.8802L63.7402 31.6598V32.5197ZM63.7402 34.8859L69.0853 30.0831V29.2463L63.7402 34.026V34.8859ZM62.6443 25.2076L67.9895 20.428H67.0549L61.7368 25.1834V25.2076H62.6443ZM70.4484 37.1563L75.7935 32.3766L74.8307 32.4008L69.5126 37.1563H70.4484ZM69.1654 32.4008H69.0853V31.6124L63.7402 36.391L63.7673 37.1563H63.8203L69.1654 32.4008ZM65.1574 37.1563L70.4755 32.4008H69.5397L64.2216 37.1563H65.1574ZM74.4564 32.4008H73.4947L68.1766 37.1563H69.1124L74.4564 32.4008ZM71.8115 32.4008H70.8486L65.5306 37.1563H66.4663L71.8115 32.4008ZM67.8023 37.1563L73.1204 32.4008H72.1858L66.8677 37.1563H67.8023ZM79.4543 20.8343L78.9999 20.428H78.947L73.6018 25.2076H74.5376L79.4543 20.8343ZM77.0495 37.1563L81.646 33.046V32.2092L76.1137 37.1563H77.0495ZM63.7402 31.3251L69.0853 26.5465V26.4023H68.2838L63.7402 30.4894V31.3251ZM76.2738 27.2149L81.4318 22.6026L80.9503 22.1973L76.2738 26.3549V27.2149ZM75.8736 25.2076L80.0958 21.4321L79.6414 21.0016L74.9378 25.2076H75.8736ZM61.7368 24.8498L66.6806 20.428H65.7177L61.7368 23.9888V24.8498ZM76.2738 26.0202L80.7632 22.0058L80.2829 21.5995L76.2479 25.2076H76.2738V26.0202ZM78.3855 37.1563L81.646 34.2407V33.3807L77.4497 37.1563H78.3855ZM63.7402 30.1547L67.9094 26.4023H66.9737L63.7402 29.2947V30.1547ZM61.7368 23.6541L65.3446 20.428H64.4088L61.7627 22.7941L61.7368 23.6541ZM63.7402 28.96L66.6005 26.4023H65.6647L63.7402 28.1232V28.96ZM61.7627 22.4594L64.0345 20.428H63.0728L61.7627 21.5995V22.4594ZM63.7402 27.7885L65.2904 26.4023H64.3546L63.7402 26.9286V27.7885ZM78.9999 37.1563L81.646 34.767V34.5754L78.7598 37.1563H78.9999ZM61.7627 21.2648L62.6985 20.428H61.7627V21.2648ZM63.7402 26.5939L63.9544 26.4023H63.7402V26.5939Z" fill="#3D1400"/>
<path d="M93.5101 32.1145L106.365 20.5954V20.428H105.616L93.0828 31.6356L93.5101 32.1145ZM94.0445 32.8071L106.365 21.7911V20.9301L93.6701 32.305L94.0445 32.8071ZM92.9486 31.4209L105.242 20.428H104.306L92.5484 30.943L92.9486 31.4209ZM94.633 33.4765L106.365 22.9615V22.1247L94.2316 32.9745L94.633 33.4765ZM92.3612 30.7515L103.906 20.428H102.97L91.9869 30.2736L92.3612 30.7515ZM95.1945 34.1449L99.3896 30.3936L101.02 28.4337V28.9358L106.365 24.1561V23.2962L94.7931 33.667L95.1945 34.1449ZM85.1186 33.6912L90.4638 28.9116V28.4337L90.678 28.6969L94.4729 25.3276L94.0715 24.8498L85.1186 32.8545V33.6912ZM85.1186 32.5197L93.9114 24.634L93.5101 24.1561L85.1186 31.6598V32.5197ZM85.1186 31.3251L93.35 23.9656L92.9486 23.4636L85.1186 30.4894V31.3251ZM85.1186 30.1547L92.7885 23.272L92.3883 22.7941L85.1186 29.2947V30.1547ZM85.1186 28.96L92.227 22.6026L91.8268 22.1247L85.1186 28.1232V28.96ZM85.1186 27.7885L91.6667 21.91L91.2654 21.4321L85.1186 26.9286V27.7885ZM85.1186 26.5939L91.1053 21.2406L90.7039 20.7396L85.1186 25.7571V26.5939ZM101.02 34.8617L106.365 30.0589V29.2221L101.02 34.0017V34.8617ZM101.02 32.4966L106.365 27.6927V26.857L101.02 31.6356V32.4966ZM101.02 30.1304L106.365 25.3276V24.4909L101.02 29.2705V30.1304ZM101.02 36.0332L106.365 31.2535V30.3936L101.02 35.1964V36.0332ZM101.02 31.3019L106.365 26.5223V25.6624L101.02 30.4652V31.3019ZM101.02 33.667L106.365 28.8884V28.0274L101.02 32.8313V33.667ZM101.073 37.1563L106.365 32.425V31.5882L101.02 36.3679V37.1563H101.073ZM85.1186 25.4234L90.5709 20.548L90.4638 20.428H89.7422L84.3971 25.2076H85.1186V25.4234ZM85.1186 34.8859L90.4638 30.0831V29.2463L85.1186 34.026V34.8859ZM85.1186 36.0574L90.4638 31.2777V30.441L85.1186 35.2206V36.0574ZM84.0228 25.2076L89.3679 20.428H88.4333L83.1152 25.1834V25.2076H84.0228ZM85.1987 37.1563L90.4638 32.4482V31.6124L85.1186 36.391L85.1457 37.1563H85.1987ZM83.1152 24.8498L88.059 20.428H87.0961L83.1152 23.9888V24.8498ZM102.41 37.1563L106.365 33.6197V32.7597L101.474 37.1563H102.41ZM86.5358 37.1563L90.4638 33.6439V32.8071L85.6001 37.1563H86.5358ZM96.4763 25.9013L102.596 20.428H101.661L99.1754 22.651L96.4763 25.9013ZM91.7998 30.0831L95.5947 26.6896L95.1945 26.1876L91.3995 29.581L91.7998 30.0831ZM91.2654 29.3894L95.0332 25.996L94.633 25.5182L90.8381 28.9116L91.2654 29.3894ZM83.1152 23.6541L86.723 20.428H85.7872L83.1411 22.7941L83.1152 23.6541ZM103.719 37.1563L106.365 34.7901V33.9544L102.783 37.1563H103.719ZM87.8448 37.1563L90.4638 34.8143V33.9775L86.909 37.1563H87.8448ZM105.055 37.1563L106.365 35.9858V35.1248L104.12 37.1563H105.055ZM83.1411 22.4594L85.4129 20.428H84.4512L83.1411 21.5995V22.4594ZM89.1807 37.1563L90.4638 36.009V35.1732L88.2461 37.1563H89.1807ZM95.7289 34.8143L98.2937 31.7082L95.3275 34.3607L95.7289 34.8143ZM83.1411 21.2648L84.0769 20.428H83.1411V21.2648ZM106.365 37.1563V36.3195L105.429 37.1563H106.365ZM90.4638 37.1563V36.3437L89.5551 37.1563H90.4638ZM100.245 21.3363L101.26 20.428H101.02L100.245 21.3363Z" fill="#3D1400"/>
<defs>
<linearGradient id="paint0_linear_86_2236" x1="28.3482" y1="-0.0357819" x2="28.3482" y2="43.3126" gradientUnits="userSpaceOnUse">
<stop stop-color="#865934"/>
<stop offset="1" stop-color="#3D1400" stop-opacity="0.4"/>
</linearGradient>
</defs>
</svg>
