<svg width="60" height="60" viewBox="0 0 60 60" fill="none" xmlns="http://www.w3.org/2000/svg">
<path d="M35.5607 13.0607L34.8536 12.3536L35.5607 13.0607C35.8507 12.7707 35.9396 12.4289 35.9728 12.1819C36.0003 11.9772 36.0001 11.7393 36 11.5394C36 11.5261 36 11.5129 36 11.5V10.5C36 10.4927 36 10.4848 36 10.4765C36.0002 10.3831 36.0005 10.2304 35.9819 10.0924C35.9579 9.91347 35.8873 9.6195 35.6339 9.36612C35.3805 9.11274 35.0865 9.04213 34.9076 9.01807C34.7696 8.99953 34.6169 8.9998 34.5235 8.99997C34.5152 8.99999 34.5073 9 34.5 9H25.5C25.4927 9 25.4848 8.99999 25.4765 8.99997C25.3831 8.9998 25.2304 8.99953 25.0924 9.01807C24.9135 9.04213 24.6195 9.11274 24.3661 9.36612C24.1127 9.6195 24.0421 9.91347 24.0181 10.0924C23.9995 10.2304 23.9998 10.3831 24 10.4765C24 10.4848 24 10.4927 24 10.5V11.5C24 11.5129 24 11.5261 24 11.5394C23.9999 11.7393 23.9997 11.9772 24.0272 12.1819C24.0604 12.4289 24.1493 12.7707 24.4393 13.0607C24.7293 13.3507 25.0711 13.4396 25.3181 13.4728C25.5228 13.5003 25.7607 13.5001 25.9606 13.5C25.9739 13.5 25.9871 13.5 26 13.5H34C34.0129 13.5 34.0261 13.5 34.0394 13.5C34.2393 13.5001 34.4772 13.5003 34.6819 13.4728C34.9289 13.4396 35.2707 13.3507 35.5607 13.0607Z" stroke="white" stroke-width="2"/>
<rect x="15" y="7.5" width="30" height="45" rx="2" stroke="white" stroke-width="2"/>
<circle cx="30" cy="45" r="2.5" fill="white"/>
</svg>
