<svg width="25" height="24" viewBox="0 0 25 24" fill="none" xmlns="http://www.w3.org/2000/svg">
<path fill-rule="evenodd" clip-rule="evenodd" d="M18.4562 15.1359C16.9234 14.8673 15.3947 13.7416 14.4736 12.0223C13.3847 9.98963 13.4628 7.72039 14.5142 6.27944C14.622 6.13175 14.74 5.99276 14.868 5.86362C15.1149 5.61455 15.0435 5.14979 14.6963 5.09307C14.4699 5.05608 14.2399 5.02981 14.0067 5.01481C13.854 5.00499 13.7 5 13.5447 5C9.65403 5 6.5 8.13401 6.5 12C6.5 15.866 9.65403 19 13.5447 19C15.7587 19 17.7342 17.9852 19.0256 16.3981C19.1724 16.2178 19.3103 16.0301 19.4387 15.8356C19.6217 15.5585 19.3679 15.2066 19.0345 15.1961C18.8425 15.19 18.6493 15.1697 18.4562 15.1359Z" stroke="white" stroke-width="1.5"/>
</svg>
