<svg width="60" height="60" viewBox="0 0 60 60" fill="none" xmlns="http://www.w3.org/2000/svg">
<g clip-path="url(#clip0_61_1524)">
<path d="M50.5606 59.9532C50.255 59.9532 49.9494 59.9375 49.645 59.9075C49.3406 59.8769 49.0381 59.8319 48.7381 59.7719C48.4381 59.7119 48.1419 59.6375 47.8488 59.5488C47.5563 59.4594 47.2688 59.3563 46.9856 59.2394C46.7031 59.1219 46.4269 58.9913 46.1575 58.8469C45.8875 58.7025 45.625 58.545 45.3706 58.375C45.1163 58.205 44.8713 58.0232 44.6344 57.8288C44.3981 57.6344 44.1719 57.4294 43.955 57.2132C43.7388 56.9969 43.5338 56.77 43.3394 56.5338C43.1456 56.2969 42.9631 56.0519 42.7931 55.7975C42.6231 55.5432 42.4656 55.2807 42.3213 55.0113C42.1769 54.7413 42.0463 54.465 41.9294 54.1825C41.8119 53.9 41.7088 53.6119 41.6194 53.3194C41.5306 53.0263 41.4563 52.73 41.3963 52.43C41.3363 52.13 41.2913 51.8275 41.2606 51.5232C41.2306 51.2188 41.215 50.9138 41.215 50.6075C41.2156 49.7063 41.3456 48.8238 41.6044 47.9607L12.0863 18.4419C11.2225 18.7013 10.3406 18.8306 9.43939 18.8319C9.13314 18.8313 8.82814 18.8163 8.52376 18.7856C8.21876 18.7556 7.91689 18.7106 7.61689 18.6506C7.31689 18.5906 7.02001 18.5163 6.72751 18.4269C6.43501 18.3381 6.14689 18.235 5.86439 18.1175C5.58189 18.0006 5.30564 17.8694 5.03564 17.725C4.76564 17.5806 4.50376 17.4238 4.24939 17.2538C3.99501 17.0838 3.74939 16.9013 3.51314 16.7075C3.27689 16.5131 3.05001 16.3081 2.83376 16.0913C2.61751 15.875 2.41189 15.6488 2.21814 15.4119C2.02376 15.1756 1.84189 14.93 1.67189 14.6756C1.50189 14.4213 1.34439 14.1594 1.20001 13.8894C1.05564 13.62 0.925014 13.3438 0.807514 13.0606C0.690639 12.7781 0.587514 12.4906 0.498139 12.1975C0.409389 11.905 0.334389 11.6088 0.275014 11.3088C0.215014 11.0088 0.169389 10.7063 0.139389 10.4019C0.109389 10.0975 0.0937637 9.79189 0.0937637 9.48627C0.0925136 8.75752 0.176889 8.03939 0.345639 7.33064C0.515014 6.62189 0.764389 5.94314 1.09376 5.29377C1.12689 5.22752 1.16751 5.16627 1.21501 5.11002C1.26314 5.05377 1.31626 5.00377 1.37626 4.96002C1.43564 4.91627 1.50001 4.88002 1.56814 4.85189C1.63626 4.82314 1.70689 4.80314 1.78001 4.79127C1.85251 4.78002 1.92626 4.77689 2.00001 4.78252C2.07376 4.78814 2.14564 4.80252 2.21564 4.82502C2.28626 4.84752 2.35251 4.87814 2.41564 4.91689C2.47876 4.95564 2.53626 5.00127 2.58876 5.05314L7.95689 10.4206H10.3738V8.00377L5.00626 2.63627C4.95439 2.58439 4.90876 2.52627 4.87064 2.46314C4.83189 2.40064 4.80126 2.33377 4.77814 2.26314C4.75564 2.19314 4.74126 2.12064 4.73564 2.04752C4.73001 1.97377 4.73314 1.90002 4.74501 1.82689C4.75689 1.75439 4.77689 1.68377 4.80564 1.61564C4.83376 1.54752 4.87001 1.48314 4.91376 1.42377C4.95751 1.36377 5.00751 1.31064 5.06376 1.26252C5.12064 1.21502 5.18189 1.17439 5.24751 1.14127C5.89689 0.811268 6.57564 0.561893 7.28439 0.392518C7.99251 0.223768 8.71126 0.139393 9.43939 0.140018C9.74501 0.140643 10.0506 0.155643 10.355 0.186268C10.6594 0.216268 10.9619 0.261268 11.2619 0.321268C11.5619 0.381268 11.8581 0.455643 12.1513 0.545018C12.4438 0.633768 12.7313 0.736893 13.0144 0.854393C13.2969 0.971893 13.5731 1.10252 13.8425 1.24689C14.1125 1.39127 14.375 1.54814 14.6294 1.71814C14.8838 1.88877 15.1288 2.07064 15.3656 2.26502C15.6019 2.45877 15.8281 2.66439 16.045 2.88064C16.2613 3.09689 16.4663 3.32314 16.6606 3.56002C16.8544 3.79627 17.0369 4.04189 17.2069 4.29627C17.3769 4.55064 17.5344 4.81252 17.6788 5.08252C17.8231 5.35252 17.9538 5.62877 18.0706 5.91127C18.1881 6.19377 18.2913 6.48127 18.3806 6.77439C18.4694 7.06689 18.5438 7.36314 18.6038 7.66314C18.6638 7.96377 18.7088 8.26565 18.7394 8.57002C18.7694 8.87502 18.785 9.18002 18.785 9.48627C18.7844 10.3875 18.6544 11.2694 18.3956 12.1325L47.9138 41.6513C48.7775 41.3925 49.6594 41.2625 50.5606 41.2619C50.8669 41.2619 51.1719 41.2769 51.4769 41.3069C51.7813 41.3369 52.0838 41.3813 52.3838 41.4413C52.6844 41.5013 52.9806 41.575 53.2738 41.6644C53.5669 41.7532 53.8544 41.8563 54.1375 41.9732C54.42 42.09 54.6963 42.2206 54.9663 42.365C55.2363 42.5094 55.4988 42.6669 55.7531 42.8369C56.0075 43.0069 56.2531 43.1888 56.4894 43.3832C56.7263 43.5775 56.9525 43.7825 57.1694 43.9988C57.3856 44.2157 57.5913 44.4419 57.785 44.6788C57.9794 44.915 58.1613 45.1607 58.3313 45.415C58.5013 45.67 58.6588 45.9319 58.8031 46.2019C58.9475 46.4719 59.0781 46.7482 59.195 47.0313C59.3125 47.3138 59.415 47.6019 59.5044 47.8944C59.5931 48.1875 59.6675 48.4838 59.7269 48.7844C59.7869 49.0844 59.8313 49.3869 59.8613 49.6913C59.8913 49.9963 59.9063 50.3013 59.9063 50.6075C59.9063 50.9138 59.8913 51.2188 59.8613 51.5238C59.8313 51.8282 59.7869 52.1307 59.7269 52.4307C59.6675 52.7313 59.5931 53.0275 59.5044 53.3207C59.415 53.6132 59.3125 53.9013 59.195 54.1838C59.0781 54.4669 58.9475 54.7432 58.8031 55.0132C58.6588 55.2832 58.5013 55.545 58.3313 55.8C58.1613 56.0544 57.9794 56.3 57.785 56.5363C57.5913 56.7732 57.3856 56.9994 57.1694 57.2163C56.9525 57.4325 56.7263 57.6375 56.4894 57.8319C56.2531 58.0263 56.0075 58.2082 55.7531 58.3782C55.4988 58.5482 55.2363 58.7057 54.9663 58.85C54.6963 58.9938 54.42 59.125 54.1375 59.2419C53.8544 59.3588 53.5669 59.4619 53.2738 59.5507C52.9806 59.64 52.6844 59.7138 52.3838 59.7738C52.0838 59.8332 51.7813 59.8782 51.4769 59.9082C51.1719 59.9382 50.8669 59.9532 50.5606 59.9532ZM12.3363 16.4381C12.4606 16.4381 12.5794 16.4619 12.6938 16.5094C12.8088 16.5569 12.9094 16.6244 12.9975 16.7119L43.3344 47.0469C43.3975 47.11 43.4506 47.1807 43.4938 47.2588C43.5363 47.3375 43.5675 47.42 43.5863 47.5075C43.6056 47.5944 43.6119 47.6825 43.6063 47.7719C43.6 47.8607 43.5813 47.9469 43.5506 48.0307C43.5013 48.1632 43.4563 48.2969 43.4144 48.4325C43.3731 48.5675 43.3356 48.7032 43.3019 48.8407C43.2681 48.9782 43.2381 49.1157 43.2119 49.255C43.1856 49.3938 43.1638 49.5332 43.1456 49.6732C43.1275 49.8138 43.1131 49.9538 43.1031 50.095C43.0931 50.2357 43.0869 50.3769 43.0844 50.5182C43.0825 50.6594 43.0844 50.8007 43.09 50.9419C43.0956 51.0832 43.105 51.2244 43.1188 51.365C43.1325 51.5057 43.1506 51.6457 43.1719 51.785C43.1938 51.925 43.2194 52.0638 43.2488 52.2019C43.2781 52.34 43.3113 52.4775 43.3488 52.6138C43.3863 52.75 43.4269 52.885 43.4719 53.0194C43.5169 53.1532 43.5656 53.2857 43.6175 53.4169C43.67 53.5482 43.7263 53.6782 43.7856 53.8063C43.8456 53.9344 43.9088 54.0607 43.9756 54.185C44.0425 54.3094 44.1125 54.4319 44.1863 54.5525C44.26 54.6732 44.3369 54.7913 44.4175 54.9075C44.4981 55.0238 44.5819 55.1375 44.6688 55.2494C44.7556 55.3607 44.845 55.4694 44.9381 55.5757C45.0313 55.6825 45.1269 55.7857 45.2263 55.8869C45.325 55.9882 45.4263 56.0857 45.5313 56.1813C45.6356 56.2763 45.7425 56.3688 45.8519 56.4575C45.9619 56.5469 46.0738 56.6332 46.1881 56.7157C46.3025 56.7988 46.4194 56.8782 46.5381 56.9544C46.6569 57.0307 46.7781 57.1038 46.9013 57.1732C47.0244 57.2425 47.1494 57.3082 47.2763 57.3707C47.4031 57.4332 47.5313 57.4919 47.6613 57.5469C47.7919 57.6019 47.9231 57.6532 48.0563 57.7013C48.1894 57.7488 48.3238 57.7925 48.4588 57.8325C48.5944 57.8732 48.7313 57.9094 48.8688 57.9413C49.0063 57.9738 49.1444 58.0025 49.2838 58.0269C49.4225 58.0513 49.5625 58.0719 49.7025 58.0888C49.8431 58.1057 49.9838 58.1182 50.125 58.1269C50.2656 58.1357 50.4069 58.14 50.5481 58.1413C50.6894 58.1419 50.8306 58.1388 50.9719 58.1313C51.1131 58.1244 51.2538 58.1132 51.3944 58.0975C51.535 58.0825 51.675 58.0632 51.8144 58.0407C51.9538 58.0175 52.0925 57.99 52.23 57.9594C52.3681 57.9282 52.505 57.8938 52.6406 57.855C52.7769 57.8163 52.9113 57.7738 53.045 57.7275C53.1788 57.6813 53.3106 57.6313 53.4413 57.5775C53.5719 57.5238 53.7013 57.4669 53.8288 57.4057C53.9563 57.3444 54.0819 57.28 54.2056 57.2119C54.3294 57.1438 54.4513 57.0725 54.5706 56.9975C54.6906 56.9225 54.8081 56.8438 54.9238 56.7625C55.0388 56.6807 55.1519 56.5957 55.2625 56.5082C55.3731 56.42 55.4806 56.3288 55.5863 56.2344C55.6919 56.1407 55.7944 56.0438 55.8944 55.9438C55.9944 55.8438 56.0913 55.7413 56.1856 55.6357C56.2794 55.53 56.3706 55.4225 56.4588 55.3119C56.5469 55.2013 56.6313 55.0882 56.7131 54.9732C56.795 54.8575 56.8731 54.74 56.9481 54.6207C57.0231 54.5007 57.095 54.3788 57.1631 54.255C57.2313 54.1313 57.2956 54.0057 57.3569 53.8782C57.4175 53.7507 57.475 53.6219 57.5288 53.4913C57.5825 53.3607 57.6325 53.2282 57.6788 53.095C57.725 52.9613 57.7675 52.8263 57.8063 52.6907C57.845 52.555 57.88 52.4175 57.9106 52.28C57.9419 52.1419 57.9688 52.0032 57.9919 51.8638C58.015 51.7244 58.0344 51.5844 58.0494 51.4444C58.0644 51.3038 58.0756 51.1632 58.0831 51.0219C58.09 50.8807 58.0938 50.7394 58.0931 50.5982C58.0919 50.4569 58.0875 50.3157 58.0788 50.1744C58.07 50.0338 58.0575 49.8932 58.0406 49.7525C58.0244 49.6125 58.0038 49.4725 57.9788 49.3332C57.9544 49.1944 57.9263 49.0557 57.8938 48.9182C57.8613 48.7807 57.825 48.6444 57.785 48.5088C57.745 48.3732 57.7013 48.2388 57.6531 48.1057C57.6056 47.9732 57.5544 47.8413 57.4994 47.7113C57.4444 47.5813 57.3856 47.4525 57.3231 47.3257C57.2606 47.1988 57.195 47.0738 57.1256 46.9507C57.0563 46.8275 56.9831 46.7069 56.9069 46.5875C56.8306 46.4688 56.7513 46.3519 56.6688 46.2375C56.5856 46.1232 56.5 46.0113 56.4106 45.9013C56.3213 45.7919 56.2294 45.685 56.1338 45.5807C56.0388 45.4757 55.9406 45.3744 55.84 45.2757C55.7388 45.1763 55.635 45.0807 55.5288 44.9875C55.4225 44.8944 55.3138 44.8044 55.2019 44.7175C55.0906 44.6307 54.9769 44.5469 54.8606 44.4669C54.7444 44.3863 54.6263 44.3094 54.5056 44.2357C54.385 44.1619 54.2625 44.0913 54.1381 44.0244C54.0138 43.9575 53.8875 43.8944 53.7594 43.8344C53.6313 43.775 53.5013 43.7188 53.37 43.6663C53.2388 43.6144 53.1063 43.5657 52.9725 43.5207C52.8388 43.4757 52.7031 43.4344 52.5669 43.3975C52.4306 43.36 52.2931 43.3269 52.155 43.2975C52.0169 43.2675 51.8781 43.2419 51.7388 43.2206C51.5988 43.1988 51.4588 43.1813 51.3181 43.1675C51.1775 43.1538 51.0363 43.1438 50.8956 43.1382C50.7544 43.1325 50.6131 43.1307 50.4719 43.1325C50.3306 43.135 50.1894 43.1413 50.0481 43.1513C49.9075 43.1613 49.7669 43.1757 49.6269 43.1938C49.4863 43.2119 49.3469 43.2338 49.2081 43.26C49.0694 43.2857 48.9313 43.3157 48.7938 43.3494C48.6569 43.3832 48.5206 43.4207 48.3856 43.4625C48.2506 43.5038 48.1169 43.5494 47.9844 43.5982C47.9006 43.6288 47.8138 43.6475 47.725 43.6538C47.6356 43.66 47.5475 43.6532 47.4606 43.6344C47.3731 43.615 47.2906 43.5838 47.2119 43.5413C47.1338 43.4981 47.0631 43.4457 47 43.3825L16.6656 13.0469C16.6025 12.9838 16.5494 12.9131 16.5063 12.8344C16.4638 12.7563 16.4325 12.6738 16.4138 12.5863C16.3944 12.4988 16.3881 12.4106 16.3938 12.3219C16.4 12.2325 16.4188 12.1463 16.4494 12.0625C16.5019 11.9219 16.5494 11.78 16.5931 11.6369C16.6369 11.4931 16.6763 11.3488 16.7113 11.2031C16.7463 11.0575 16.7763 10.9106 16.8025 10.7631C16.8288 10.6156 16.85 10.4669 16.8675 10.3181C16.8844 10.1694 16.8969 10.02 16.905 9.87002C16.9131 9.72064 16.9169 9.57065 16.9163 9.42127C16.915 9.27127 16.9094 9.12127 16.8994 8.9719C16.89 8.82252 16.875 8.67314 16.8563 8.52439C16.8375 8.37564 16.8138 8.22752 16.7863 8.08064C16.7581 7.93314 16.7263 7.78689 16.6894 7.64127C16.6525 7.49627 16.6119 7.35189 16.5663 7.20939C16.5213 7.06627 16.4713 6.92502 16.4175 6.78502C16.3638 6.64502 16.3056 6.50689 16.2431 6.37064C16.1813 6.23439 16.115 6.10002 16.0444 5.96752C15.9744 5.83564 15.9 5.70502 15.8219 5.57752C15.7438 5.44939 15.6613 5.32377 15.5756 5.20127C15.49 5.07814 15.4006 4.95814 15.3075 4.84002C15.215 4.72252 15.1181 4.60814 15.0181 4.49627C14.9188 4.38439 14.8156 4.27627 14.7088 4.17064C14.6025 4.06502 14.4931 3.96252 14.38 3.86377C14.2675 3.76502 14.1519 3.66939 14.0338 3.57752C13.9156 3.48564 13.7944 3.39689 13.6706 3.31252C13.5469 3.22814 13.4206 3.14689 13.2925 3.07002C13.1638 2.99314 13.0331 2.92002 12.9 2.85064C12.7669 2.78127 12.6319 2.71627 12.495 2.65564C12.3581 2.59439 12.2194 2.53752 12.0794 2.48502C11.9388 2.43189 11.7969 2.38377 11.6538 2.33939C11.5106 2.29564 11.3663 2.25564 11.2206 2.22064C11.075 2.18502 10.9281 2.15377 10.7806 2.12752C10.6331 2.10064 10.485 2.07877 10.3363 2.06127C10.1875 2.04377 10.0381 2.03064 9.88876 2.02189C9.73876 2.01314 9.58939 2.00877 9.43939 2.00939C8.72064 2.00877 8.01751 2.11064 7.32876 2.31564L11.9694 6.95627C12.0569 7.04377 12.1244 7.14502 12.1719 7.25939C12.2194 7.37377 12.2431 7.49314 12.2431 7.61689V11.355C12.2431 11.4163 12.2369 11.4775 12.225 11.5375C12.2131 11.5975 12.1956 11.6563 12.1719 11.7125C12.1481 11.7694 12.1194 11.8231 12.0856 11.8744C12.0513 11.9256 12.0125 11.9725 11.9694 12.0163C11.9256 12.0594 11.8788 12.0981 11.8275 12.1325C11.7769 12.1663 11.7225 12.195 11.6663 12.2188C11.6094 12.2419 11.5506 12.26 11.4906 12.2719C11.4306 12.2838 11.37 12.29 11.3081 12.29H7.57001C7.44626 12.29 7.32689 12.2663 7.21251 12.2188C7.09814 12.1713 6.99689 12.1038 6.90939 12.0156L2.26939 7.37564C2.06376 8.06439 1.96189 8.76752 1.96251 9.48627C1.96251 9.63564 1.96626 9.78564 1.97501 9.93502C1.98376 10.085 1.99689 10.2344 2.01439 10.3831C2.03189 10.5319 2.05439 10.68 2.08064 10.8275C2.10751 10.975 2.13814 11.1213 2.17376 11.2669C2.20939 11.4125 2.24876 11.5575 2.29314 11.7006C2.33751 11.8438 2.38564 11.9856 2.43814 12.1256C2.49126 12.2663 2.54814 12.405 2.60876 12.5419C2.67001 12.6788 2.73501 12.8138 2.80439 12.9463C2.87314 13.0794 2.94626 13.21 3.02376 13.3388C3.10064 13.4675 3.18126 13.5931 3.26626 13.7169C3.35064 13.8406 3.43939 13.9619 3.53126 14.08C3.62314 14.1988 3.71876 14.3138 3.81751 14.4263C3.91626 14.5394 4.01876 14.6488 4.12439 14.755C4.22939 14.8613 4.33814 14.9644 4.45001 15.0644C4.56189 15.1644 4.67626 15.2606 4.79376 15.3538C4.91126 15.4469 5.03189 15.5363 5.15501 15.6219C5.27751 15.7075 5.40314 15.7894 5.53126 15.8675C5.65876 15.9456 5.78876 16.02 5.92126 16.0906C6.05376 16.1606 6.18814 16.2269 6.32439 16.2894C6.46064 16.3513 6.59876 16.4094 6.73876 16.4631C6.87876 16.5175 7.02001 16.5669 7.16314 16.6125C7.30564 16.6575 7.45001 16.6988 7.59501 16.735C7.74064 16.7719 7.88689 16.8044 8.03376 16.8319C8.18126 16.86 8.32939 16.8831 8.47814 16.9025C8.62689 16.9213 8.77564 16.9356 8.92501 16.9456C9.07501 16.9556 9.22439 16.9606 9.37439 16.9619C9.52439 16.9625 9.67376 16.9588 9.82376 16.9506C9.97314 16.9431 10.1225 16.93 10.2713 16.9131C10.4206 16.8963 10.5688 16.8744 10.7163 16.8481C10.8638 16.8225 11.0106 16.7919 11.1563 16.7569C11.3019 16.7219 11.4469 16.6825 11.59 16.6388C11.7338 16.5956 11.8756 16.5475 12.0156 16.4956C12.1194 16.4569 12.2263 16.4381 12.3363 16.4381Z" fill="white"/>
<path d="M52.7196 55.2806H48.4021C48.3202 55.2806 48.2396 55.27 48.1602 55.2488C48.0808 55.2275 48.0058 55.1963 47.9346 55.155C47.8639 55.1144 47.7989 55.0644 47.7414 55.0069C47.6833 54.9488 47.6339 54.8844 47.5927 54.8131L45.4346 51.075C45.3939 51.0038 45.3627 50.9288 45.3414 50.8494C45.3202 50.77 45.3096 50.6894 45.3096 50.6075C45.3096 50.5256 45.3202 50.445 45.3414 50.3656C45.3627 50.2863 45.3939 50.2113 45.4346 50.14L47.5927 46.4019C47.6339 46.3306 47.6833 46.2663 47.7414 46.2081C47.7989 46.1506 47.8639 46.1006 47.9346 46.06C48.0058 46.0188 48.0808 45.9875 48.1602 45.9663C48.2396 45.945 48.3202 45.9344 48.4021 45.9344H52.7196C52.8021 45.9344 52.8827 45.945 52.9614 45.9663C53.0408 45.9875 53.1158 46.0188 53.1871 46.06C53.2583 46.1006 53.3227 46.15 53.3808 46.2081C53.4389 46.2663 53.4883 46.3306 53.5289 46.4019L55.6871 50.14C55.7283 50.2113 55.7589 50.2863 55.7802 50.3656C55.8014 50.445 55.8121 50.5256 55.8121 50.6075C55.8121 50.6894 55.8014 50.77 55.7802 50.8494C55.7589 50.9288 55.7283 51.0038 55.6871 51.075L53.5289 54.8131C53.4883 54.8844 53.4389 54.9488 53.3808 55.0069C53.3227 55.0644 53.2583 55.1144 53.1871 55.155C53.1158 55.1963 53.0408 55.2275 52.9614 55.2488C52.8827 55.27 52.8021 55.2806 52.7196 55.2806ZM48.9421 53.4113H52.1796L53.7996 50.6075L52.1796 47.8038H48.9421L47.3227 50.6075L48.9421 53.4113Z" fill="white"/>
<path d="M13.4512 14.82L14.773 13.4981L16.6418 15.3669L15.3205 16.6887L13.4512 14.82Z" fill="white"/>
<path d="M16.2549 17.6238L17.5768 16.3019L45.6136 44.3388L44.2924 45.6606L16.2549 17.6238Z" fill="white"/>
<path d="M6.63562 59.9532C6.51188 59.9532 6.3925 59.9294 6.27812 59.8819C6.16313 59.8344 6.0625 59.7669 5.975 59.6794L0.3675 54.0719C0.32375 54.0288 0.285 53.9813 0.25125 53.9307C0.216875 53.8794 0.188125 53.8257 0.165 53.7688C0.14125 53.7119 0.12375 53.6538 0.111875 53.5938C0.099375 53.5332 0.09375 53.4725 0.09375 53.4113C0.09375 53.35 0.099375 53.2894 0.111875 53.2288C0.12375 53.1688 0.14125 53.1107 0.165 53.0538C0.188125 52.9969 0.216875 52.9432 0.25125 52.8919C0.285 52.8413 0.32375 52.7938 0.3675 52.7507L15.3206 37.7975C15.4081 37.7094 15.5094 37.6419 15.6237 37.5944C15.7381 37.5469 15.8575 37.5232 15.9812 37.5232H16.9156V36.5888C16.9156 36.465 16.9394 36.3457 16.9869 36.2313C17.0344 36.1169 17.1019 36.0157 17.19 35.9282L19.0588 34.0588C19.1025 34.0157 19.1494 33.9769 19.2006 33.9425C19.2512 33.9088 19.3056 33.88 19.3619 33.8563C19.4187 33.8332 19.4769 33.815 19.5375 33.8032C19.5975 33.7913 19.6581 33.785 19.7194 33.785C19.7812 33.785 19.8419 33.7913 19.9019 33.8032C19.9619 33.815 20.0206 33.8332 20.0775 33.8563C20.1337 33.88 20.1875 33.9088 20.2388 33.9425C20.29 33.9769 20.3369 34.0157 20.3806 34.0588L25.9881 39.6663C26.0312 39.71 26.07 39.7569 26.1038 39.8082C26.1381 39.8588 26.1669 39.9132 26.1906 39.9694C26.2137 40.0263 26.2319 40.0844 26.2437 40.145C26.2556 40.205 26.2612 40.2657 26.2612 40.3269C26.2612 40.3888 26.2556 40.4494 26.2437 40.5094C26.2319 40.5694 26.2137 40.6282 26.1906 40.6844C26.1669 40.7413 26.1381 40.795 26.1038 40.8463C26.07 40.8975 26.0312 40.9444 25.9881 40.9882L24.1187 42.8569C24.0312 42.9444 23.93 43.0125 23.8156 43.0594C23.7013 43.1069 23.5819 43.1307 23.4581 43.1307H22.5231V44.0657C22.5231 44.1894 22.4994 44.3088 22.4519 44.4232C22.405 44.5375 22.3369 44.6388 22.2494 44.7263L7.29625 59.6794C7.20875 59.7669 7.1075 59.8344 6.99312 59.8819C6.87875 59.9294 6.75938 59.9532 6.63562 59.9532ZM2.34938 53.4113L6.63562 57.6975L20.6544 43.6788V42.1963C20.6544 42.135 20.66 42.0744 20.6719 42.0138C20.6844 41.9538 20.7019 41.895 20.7256 41.8388C20.7487 41.7819 20.7775 41.7282 20.8119 41.6769C20.8456 41.6263 20.8844 41.5788 20.9281 41.5357C20.9712 41.4919 21.0187 41.4532 21.0694 41.4194C21.1206 41.385 21.1744 41.3563 21.2312 41.3332C21.2881 41.3094 21.3462 41.2919 21.4062 41.2794C21.4669 41.2675 21.5275 41.2619 21.5887 41.2619H23.0712L24.0056 40.3269L19.7194 36.0413L18.785 36.9757V38.4582C18.785 38.5194 18.7787 38.58 18.7669 38.64C18.755 38.7007 18.7375 38.7588 18.7137 38.8157C18.6906 38.8725 18.6619 38.9263 18.6275 38.9769C18.5938 39.0282 18.555 39.0757 18.5112 39.1188C18.4681 39.1619 18.4206 39.2007 18.37 39.235C18.3188 39.2694 18.265 39.2982 18.2081 39.3213C18.1512 39.345 18.0931 39.3625 18.0325 39.3744C17.9725 39.3863 17.9119 39.3925 17.8506 39.3925H16.3681L2.34938 53.4113Z" fill="white"/>
<path d="M2.23633 51.2681L3.5582 49.9462L10.0995 56.4881L8.7782 57.81L2.23633 51.2681Z" fill="white"/>
<path d="M17.1899 39.1194L18.5118 37.7975L22.2499 41.5356L20.9281 42.8575L17.1899 39.1194Z" fill="white"/>
<path d="M5.04053 53.685L17.1899 41.535L18.5118 42.8568L6.36178 55.0062L5.04053 53.685Z" fill="white"/>
<path d="M20.9282 35.9281L26.0682 30.7875L27.3901 32.1094L22.2501 37.2494L20.9282 35.9281Z" fill="white"/>
<path d="M33.4646 29.7731L32.1433 28.4512L50.8346 9.75998C50.9227 9.67185 51.0233 9.60435 51.1377 9.55685C51.2527 9.50998 51.3714 9.48623 51.4958 9.48623H54.7339L57.7696 4.93185L55.1152 2.27748L50.5608 5.3131V8.55123C50.5608 8.6756 50.5371 8.79435 50.4896 8.90873C50.4421 9.02373 50.3746 9.12435 50.2871 9.21185L31.5958 27.9037L30.2739 26.5825L48.6921 8.16435V4.8131C48.6921 4.65685 48.7283 4.50998 48.8021 4.37185C48.8758 4.23435 48.9777 4.12248 49.1077 4.0356L54.7152 0.297476C54.8052 0.237476 54.9027 0.194351 55.0071 0.1681C55.1121 0.141851 55.2183 0.134351 55.3258 0.144976C55.4333 0.1556 55.5358 0.183726 55.6333 0.229976C55.7314 0.276225 55.8183 0.337476 55.8946 0.413726L59.6327 4.15248C59.7096 4.22873 59.7708 4.3156 59.8171 4.4131C59.8633 4.51123 59.8914 4.61373 59.9021 4.72123C59.9127 4.82873 59.9052 4.93498 59.8789 5.03998C59.8527 5.14435 59.8096 5.24185 59.7496 5.33185L56.0114 10.9394C55.9246 11.0694 55.8127 11.1712 55.6746 11.2444C55.5371 11.3181 55.3902 11.355 55.2339 11.355H51.8827L33.4646 29.7731Z" fill="white"/>
<path d="M22.7969 37.7975L28.4044 32.19L29.7256 33.5119L24.1188 39.1188L22.7969 37.7975Z" fill="white"/>
</g>
<defs>
<clipPath id="clip0_61_1524">
<rect width="60" height="60" fill="white"/>
</clipPath>
</defs>
</svg>
