<svg width="64" height="64" viewBox="0 0 64 64" fill="none" xmlns="http://www.w3.org/2000/svg">
<path d="M38.1801 3.80099L40.1702 3.60198V3.60198L38.1801 3.80099ZM38.8787 10.7876L40.8688 10.5886V10.5886L38.8787 10.7876ZM39.6766 13.4669L40.442 11.6192L40.442 11.6192L39.6766 13.4669ZM42.1353 12.1365L40.8688 10.5886V10.5886L42.1353 12.1365ZM47.5696 7.69029L46.3031 6.14238V6.14238L47.5696 7.69029ZM48.9531 6.89242L48.8534 8.88994H48.8534L48.9531 6.89242ZM50.2503 7.82399L48.8361 9.23821V9.23821L50.2503 7.82399ZM56.1759 13.7496L57.5901 12.3354V12.3354L56.1759 13.7496ZM57.1075 15.0468L59.105 14.9472V14.9472L57.1075 15.0468ZM56.3096 16.4303L57.8575 17.6967L56.3096 16.4303ZM51.8633 21.8646L53.3329 23.2212L53.3734 23.1773L53.4112 23.1311L51.8633 21.8646ZM51.8633 21.8647L50.3936 20.5081L50.3531 20.552L50.3153 20.5982L51.8633 21.8647ZM50.5329 24.3233L52.3806 23.558V23.558L50.5329 24.3233ZM53.2122 25.1212L53.0132 27.1113L53.2122 25.1212ZM60.199 25.8199L60.398 23.8298L60.199 25.8199ZM61.7415 26.234L60.2585 27.576L60.2585 27.576L61.7415 26.234ZM61.7415 37.766L60.2586 36.424L60.2585 36.424L61.7415 37.766ZM60.199 38.1801L60.398 40.1702H60.398L60.199 38.1801ZM53.2133 38.8786L53.0143 36.8886L53.2133 38.8786ZM50.534 39.6765L48.6863 38.9111L48.6863 38.9111L50.534 39.6765ZM51.8644 42.1352L53.4123 40.8687H53.4123L51.8644 42.1352ZM56.3097 47.5684L57.8576 46.3019L56.3097 47.5684ZM57.1076 48.9518L59.1051 49.0515V49.0514L57.1076 48.9518ZM48.9532 57.1062L49.0528 59.1037H49.0528L48.9532 57.1062ZM47.5697 56.3083L46.3033 57.8563V57.8563L47.5697 56.3083ZM42.1354 51.8621L43.4019 50.3142V50.3142L42.1354 51.8621ZM39.6767 50.5317L38.9114 48.6839L38.9114 48.684L39.6767 50.5317ZM38.8789 53.211L40.869 53.41L38.8789 53.211ZM38.1801 60.199L40.1702 60.398V60.398L38.1801 60.199ZM37.766 61.7415L36.424 60.2585L36.424 60.2586L37.766 61.7415ZM26.234 61.7415L27.576 60.2585L27.576 60.2585L26.234 61.7415ZM25.8199 60.199L23.8298 60.398L25.8199 60.199ZM25.1212 53.2122L23.1311 53.4112V53.4112L25.1212 53.2122ZM24.3234 50.5329L25.0887 48.6852L25.0887 48.6851L24.3234 50.5329ZM21.8647 51.8633L23.1311 53.4112V53.4112L21.8647 51.8633ZM16.4302 56.3097L15.1637 54.7618V54.7618L16.4302 56.3097ZM15.0467 57.1076L14.947 59.1051H14.9471L15.0467 57.1076ZM6.8923 48.9532L4.89479 49.0528L4.89479 49.0528L6.8923 48.9532ZM7.69018 47.5697L6.14226 46.3032H6.14226L7.69018 47.5697ZM12.1365 42.1353L13.6844 43.4018H13.6844L12.1365 42.1353ZM13.4669 39.6766L11.6192 40.4419L11.6192 40.4419L13.4669 39.6766ZM10.7876 38.8787L10.5886 40.8688H10.5886L10.7876 38.8787ZM3.80099 38.1801L3.60198 40.1701H3.60198L3.80099 38.1801ZM2.25855 26.234L3.74145 27.576H3.74145L2.25855 26.234ZM3.80097 25.8199V23.8199H3.70122L3.60196 23.8298L3.80097 25.8199ZM3.80099 25.8199V27.8199H3.90074L4 27.8099L3.80099 25.8199ZM10.7887 25.1211L10.9878 27.1112H10.9878L10.7887 25.1211ZM13.468 24.3233L11.6203 23.5579L11.6203 23.5579L13.468 24.3233ZM12.1377 21.8645L13.6856 20.5981L12.1377 21.8645ZM7.69032 16.4289L9.23823 15.1624L9.23823 15.1624L7.69032 16.4289ZM6.89244 15.0454L8.88996 15.1451V15.1451L6.89244 15.0454ZM7.82402 13.7482L9.23823 15.1624L9.23823 15.1624L7.82402 13.7482ZM15.0468 6.89107L14.9472 4.89355H14.9472L15.0468 6.89107ZM16.4303 7.68894L17.6968 6.14103L17.6968 6.14102L16.4303 7.68894ZM21.8648 12.1353L20.5983 13.6833L20.631 13.71L20.6648 13.7353L21.8648 12.1353ZM21.8648 12.1354L23.1313 10.5874L23.0986 10.5607L23.0648 10.5353L21.8648 12.1354ZM24.3235 13.4657L25.0889 15.3135L25.0889 15.3135L24.3235 13.4657ZM25.1213 10.7864L27.1114 10.9854V10.9854L25.1213 10.7864ZM25.8199 3.80099L27.81 4L27.8199 3.90074V3.80099H25.8199ZM25.8199 3.80097L23.8298 3.60196L23.8199 3.70122V3.80097H25.8199ZM26.234 2.25855L27.576 3.74145V3.74145L26.234 2.25855ZM40.1702 3.60198C40.1327 3.22722 40.0894 2.75494 39.9964 2.354C39.8905 1.89743 39.6701 1.28429 39.108 0.775645L36.424 3.74145C36.2999 3.62915 36.2114 3.50331 36.1551 3.39217C36.1054 3.29414 36.0943 3.23393 36.0998 3.25751C36.1056 3.28281 36.1179 3.34667 36.1348 3.48269C36.1517 3.61806 36.1679 3.7789 36.19 4L40.1702 3.60198ZM40.8688 10.5886L40.1702 3.60198L36.19 4L36.8887 10.9866L40.8688 10.5886ZM40.442 11.6192C40.7146 11.7321 40.9073 11.9215 41.0148 12.0857C41.0978 12.2123 41.0989 12.2764 41.0712 12.166C41.0454 12.0635 41.0145 11.8938 40.9787 11.6118C40.9435 11.3335 40.9105 11.005 40.8688 10.5886L36.8887 10.9866C36.9636 11.7358 37.0374 12.5271 37.1921 13.1419C37.3475 13.7596 37.7342 14.8272 38.9112 15.3147L40.442 11.6192ZM40.8688 10.5886C40.545 10.8536 40.2893 11.0626 40.0676 11.2344C39.8429 11.4086 39.7011 11.5067 39.6103 11.5609C39.5126 11.6193 39.5588 11.5749 39.707 11.544C39.8991 11.5039 40.1693 11.5062 40.442 11.6192L38.9112 15.3147C40.0882 15.8022 41.1166 15.3208 41.6632 14.994C42.2074 14.6686 42.8191 14.1612 43.4018 13.6845L40.8688 10.5886ZM46.3031 6.14238L40.8688 10.5886L43.4018 13.6845L48.8361 9.23821L46.3031 6.14238ZM49.0527 4.8949C48.2956 4.85714 47.7062 5.1348 47.3085 5.38279C46.9592 5.60056 46.5946 5.90388 46.3031 6.14238L48.8361 9.23821C49.008 9.0975 49.1332 8.99523 49.2409 8.91144C49.3491 8.82725 49.4029 8.79074 49.4249 8.777C49.4454 8.76419 49.395 8.79889 49.2905 8.83309C49.1721 8.87186 49.0206 8.89827 48.8534 8.88994L49.0527 4.8949ZM51.6645 6.40978C51.3982 6.14346 51.0656 5.80537 50.7397 5.55393C50.3687 5.2676 49.8098 4.93266 49.0527 4.8949L48.8534 8.88994C48.6863 8.8816 48.5381 8.84024 48.4242 8.78988C48.3236 8.74545 48.2769 8.70591 48.2961 8.72069C48.3166 8.73656 48.3665 8.77824 48.4658 8.87278C48.5646 8.96687 48.679 9.08109 48.8361 9.23821L51.6645 6.40978ZM57.5901 12.3354L51.6645 6.40978L48.8361 9.23821L54.7617 15.1638L57.5901 12.3354ZM59.105 14.9472C59.0672 14.1901 58.7323 13.6312 58.4459 13.2601C58.1945 12.9343 57.8564 12.6017 57.5901 12.3354L54.7617 15.1638C54.9188 15.3209 55.033 15.4353 55.1271 15.5341C55.2216 15.6334 55.2633 15.6833 55.2792 15.7038C55.294 15.723 55.2544 15.6762 55.21 15.5757C55.1596 15.4617 55.1183 15.3136 55.1099 15.1464L59.105 14.9472ZM57.8575 17.6967C58.096 17.4053 58.3993 17.0407 58.6171 16.6914C58.8651 16.2937 59.1427 15.7043 59.105 14.9472L55.1099 15.1464C55.1016 14.9793 55.128 14.8277 55.1668 14.7093C55.201 14.6049 55.2357 14.5544 55.2229 14.575C55.2091 14.597 55.1726 14.6508 55.0884 14.759C55.0046 14.8666 54.9024 14.9918 54.7617 15.1638L57.8575 17.6967ZM53.4112 23.1311L57.8575 17.6967L54.7617 15.1638L50.3154 20.5982L53.4112 23.1311ZM53.3329 23.2212L53.3329 23.2212L50.3937 20.5081L50.3936 20.5081L53.3329 23.2212ZM52.3806 23.558C52.4936 23.8307 52.4959 24.1008 52.4559 24.2929C52.4249 24.4411 52.3805 24.4873 52.4389 24.3896C52.4932 24.2989 52.5912 24.157 52.7654 23.9323C52.9372 23.7106 53.1462 23.455 53.4112 23.1311L50.3153 20.5982C49.8386 21.1809 49.3312 21.7926 49.0059 22.3367C48.679 22.8834 48.1976 23.9117 48.6851 25.0887L52.3806 23.558ZM53.4112 23.1311C52.9949 23.0895 52.6663 23.0565 52.388 23.0212C52.106 22.9855 51.9363 22.9546 51.8338 22.9288C51.7234 22.901 51.7875 22.9022 51.9141 22.9851C52.0783 23.0926 52.2677 23.2853 52.3806 23.558L48.6851 25.0887C49.1727 26.2657 50.2402 26.6525 50.8579 26.8079C51.4727 26.9626 52.264 27.0364 53.0132 27.1113L53.4112 23.1311ZM60.398 23.8298L53.4112 23.1311L53.0132 27.1113L60 27.81L60.398 23.8298ZM63.2244 24.892C62.7157 24.3299 62.1026 24.1094 61.646 24.0036C61.2451 23.9106 60.7728 23.8673 60.398 23.8298L60 27.81C60.2211 27.8321 60.3819 27.8483 60.5173 27.8651C60.6533 27.8821 60.7172 27.8943 60.7425 27.9002C60.7661 27.9057 60.7059 27.8945 60.6078 27.8448C60.4967 27.7885 60.3708 27.7001 60.2585 27.576L63.2244 24.892ZM64 27.81C64 27.4333 64.0039 26.9591 63.9513 26.5509C63.8914 26.086 63.733 25.454 63.2244 24.8919L60.2585 27.576C60.1463 27.4519 60.0707 27.3179 60.0258 27.2017C59.9861 27.0992 59.981 27.0382 59.9841 27.0622C59.9874 27.0879 59.9932 27.1527 59.9966 27.2897C59.9999 27.4261 60 27.5878 60 27.81H64ZM64 36.19V27.81H60V36.19H64ZM63.2243 39.108C63.733 38.546 63.8914 37.9139 63.9513 37.4491C64.0039 37.0409 64 36.5666 64 36.19H60C60 36.4122 59.9999 36.5739 59.9966 36.7102C59.9932 36.8473 59.9874 36.912 59.9841 36.9378C59.981 36.9618 59.9861 36.9008 60.0258 36.7983C60.0707 36.6821 60.1463 36.5481 60.2586 36.424L63.2243 39.108ZM60.398 40.1702C60.7728 40.1327 61.2451 40.0894 61.646 39.9964C62.1026 39.8905 62.7157 39.6701 63.2244 39.108L60.2585 36.424C60.3708 36.2999 60.4967 36.2114 60.6078 36.1551C60.7059 36.1054 60.7661 36.0943 60.7425 36.0998C60.7172 36.1056 60.6533 36.1178 60.5173 36.1348C60.3819 36.1517 60.2211 36.1679 60 36.19L60.398 40.1702ZM53.4123 40.8687L60.398 40.1702L60 36.19L53.0143 36.8886L53.4123 40.8687ZM52.3818 40.4419C52.2688 40.7145 52.0794 40.9072 51.9153 41.0147C51.7886 41.0977 51.7245 41.0988 51.8349 41.0711C51.9375 41.0453 52.1071 41.0144 52.3892 40.9786C52.6674 40.9434 52.996 40.9104 53.4123 40.8687L53.0143 36.8886C52.2651 36.9635 51.4739 37.0373 50.859 37.192C50.2413 37.3474 49.1738 37.7341 48.6863 38.9111L52.3818 40.4419ZM53.4123 40.8687C53.1474 40.5449 52.9384 40.2892 52.7665 40.0675C52.5924 39.8428 52.4943 39.701 52.44 39.6102C52.3816 39.5125 52.4261 39.5587 52.457 39.7069C52.497 39.899 52.4947 40.1692 52.3818 40.4419L48.6863 38.9111C48.1987 40.0881 48.6801 41.1165 49.007 41.6631C49.3324 42.2073 49.8397 42.819 50.3165 43.4017L53.4123 40.8687ZM57.8576 46.3019L53.4123 40.8687L50.3165 43.4017L54.7618 48.8348L57.8576 46.3019ZM59.1051 49.0514C59.1429 48.2944 58.8652 47.7049 58.6172 47.3072C58.3994 46.958 58.0961 46.5934 57.8576 46.3019L54.7618 48.8348C54.9025 49.0068 55.0048 49.132 55.0886 49.2397C55.1728 49.3478 55.2093 49.4016 55.223 49.4237C55.2358 49.4442 55.2011 49.3938 55.1669 49.2893C55.1282 49.1709 55.1017 49.0194 55.1101 48.8522L59.1051 49.0514ZM57.5902 51.6633C57.8565 51.3969 58.1946 51.0644 58.4461 50.7385C58.7324 50.3675 59.0673 49.8086 59.1051 49.0515L55.1101 48.8522C55.1184 48.6851 55.1598 48.5369 55.2101 48.4229C55.2546 48.3224 55.2941 48.2757 55.2793 48.2948C55.2635 48.3154 55.2218 48.3653 55.1272 48.4645C55.0331 48.5633 54.9189 48.6777 54.7618 48.8348L57.5902 51.6633ZM51.6646 57.5889L57.5902 51.6633L54.7618 48.8348L48.8362 54.7604L51.6646 57.5889ZM49.0528 59.1037C49.8099 59.066 50.3688 58.731 50.7399 58.4447C51.0657 58.1933 51.3983 57.8552 51.6646 57.5889L48.8362 54.7604C48.6791 54.9175 48.5647 55.0318 48.4659 55.1259C48.3667 55.2204 48.3168 55.2621 48.2962 55.2779C48.277 55.2927 48.3238 55.2532 48.4243 55.2088C48.5383 55.1584 48.6864 55.117 48.8536 55.1087L49.0528 59.1037ZM46.3033 57.8563C46.5948 58.0948 46.9593 58.3981 47.3086 58.6158C47.7063 58.8638 48.2957 59.1415 49.0528 59.1037L48.8536 55.1087C49.0207 55.1004 49.1723 55.1268 49.2907 55.1656C49.3951 55.1997 49.4456 55.2344 49.425 55.2216C49.403 55.2079 49.3492 55.1714 49.241 55.0872C49.1334 55.0034 49.0082 54.9011 48.8362 54.7604L46.3033 57.8563ZM40.869 53.41L46.3033 57.8563L48.8362 54.7604L43.4019 50.3142L40.869 53.41ZM40.4421 52.3795C40.1694 52.4924 39.8992 52.4947 39.7071 52.4547C39.559 52.4238 39.5128 52.3793 39.6105 52.4377C39.7012 52.492 39.8431 52.5901 40.0678 52.7642C40.2894 52.936 40.5451 53.1451 40.869 53.41L43.4019 50.3142C42.8192 49.8374 42.2075 49.3301 41.6634 49.0047C41.1167 48.6778 40.0884 48.1964 38.9114 48.6839L40.4421 52.3795ZM40.869 53.41C40.9106 52.9937 40.9436 52.6651 40.9789 52.3868C41.0146 52.1048 41.0455 51.9352 41.0713 51.8326C41.0991 51.7222 41.0979 51.7863 41.015 51.9129C40.9075 52.0771 40.7148 52.2665 40.4421 52.3795L38.9114 48.684C37.7344 49.1715 37.3476 50.239 37.1922 50.8567C37.0375 51.4716 36.9637 52.2628 36.8888 53.012L40.869 53.41ZM40.1702 60.398L40.869 53.41L36.8888 53.012L36.19 60L40.1702 60.398ZM39.108 63.2244C39.6701 62.7157 39.8905 62.1026 39.9964 61.646C40.0894 61.2451 40.1327 60.7728 40.1702 60.398L36.19 60C36.1679 60.2211 36.1517 60.3819 36.1348 60.5173C36.1179 60.6533 36.1056 60.7172 36.0998 60.7425C36.0943 60.7661 36.1054 60.7059 36.1551 60.6078C36.2114 60.4967 36.2999 60.3708 36.424 60.2585L39.108 63.2244ZM36.19 64C36.5666 64 37.0409 64.0039 37.4491 63.9513C37.9139 63.8914 38.546 63.733 39.108 63.2243L36.424 60.2586C36.5481 60.1463 36.6821 60.0707 36.7983 60.0258C36.9008 59.9861 36.9618 59.981 36.9378 59.9841C36.912 59.9874 36.8473 59.9932 36.7102 59.9966C36.5739 59.9999 36.4122 60 36.19 60V64ZM27.81 64H36.19V60H27.81V64ZM24.892 63.2244C25.454 63.733 26.086 63.8914 26.5509 63.9513C26.9591 64.0039 27.4333 64 27.81 64V60C27.5878 60 27.4261 59.9999 27.2897 59.9966C27.1527 59.9932 27.0879 59.9874 27.0622 59.9841C27.0382 59.981 27.0992 59.9861 27.2017 60.0258C27.3179 60.0707 27.4519 60.1463 27.576 60.2585L24.892 63.2244ZM23.8298 60.398C23.8673 60.7728 23.9106 61.2451 24.0036 61.646C24.1094 62.1026 24.3299 62.7157 24.892 63.2244L27.576 60.2585C27.7001 60.3708 27.7885 60.4967 27.8449 60.6078C27.8945 60.7059 27.9057 60.7661 27.9002 60.7425C27.8943 60.7172 27.8821 60.6533 27.8652 60.5173C27.8483 60.3819 27.8321 60.2211 27.81 60L23.8298 60.398ZM23.1311 53.4112L23.8298 60.398L27.81 60L27.1113 53.0132L23.1311 53.4112ZM23.558 52.3807C23.2853 52.2677 23.0926 52.0783 22.9851 51.9142C22.9022 51.7875 22.901 51.7234 22.9288 51.8338C22.9546 51.9364 22.9855 52.106 23.0212 52.388C23.0565 52.6663 23.0895 52.9949 23.1311 53.4112L27.1113 53.0132C27.0364 52.264 26.9626 51.4728 26.8079 50.8579C26.6525 50.2402 26.2657 49.1727 25.0887 48.6852L23.558 52.3807ZM23.1311 53.4112C23.455 53.1463 23.7106 52.9372 23.9323 52.7654C24.157 52.5913 24.2989 52.4932 24.3896 52.4389C24.4873 52.3805 24.4411 52.425 24.2929 52.4559C24.1009 52.4959 23.8307 52.4936 23.558 52.3807L25.0887 48.6851C23.9117 48.1976 22.8834 48.679 22.3367 49.0059C21.7926 49.3313 21.1809 49.8386 20.5982 50.3154L23.1311 53.4112ZM17.6966 57.8576L23.1311 53.4112L20.5982 50.3154L15.1637 54.7618L17.6966 57.8576ZM14.9471 59.1051C15.7042 59.1428 16.2936 58.8652 16.6913 58.6172C17.0405 58.3994 17.4051 58.0961 17.6966 57.8576L15.1637 54.7618C14.9917 54.9025 14.8665 55.0048 14.7589 55.0886C14.6507 55.1727 14.5969 55.2093 14.5748 55.223C14.5543 55.2358 14.6048 55.2011 14.7092 55.1669C14.8276 55.1281 14.9792 55.1017 15.1463 55.1101L14.9471 59.1051ZM12.3353 57.5902C12.6016 57.8565 12.9342 58.1946 13.26 58.4461C13.6311 58.7324 14.19 59.0673 14.947 59.1051L15.1463 55.1101C15.3135 55.1184 15.4616 55.1598 15.5756 55.2101C15.6761 55.2545 15.7229 55.2941 15.7037 55.2793C15.6831 55.2634 15.6332 55.2217 15.534 55.1272C15.4352 55.0331 15.3208 54.9189 15.1637 54.7618L12.3353 57.5902ZM6.40966 51.6646L12.3353 57.5902L15.1637 54.7618L9.23809 48.8362L6.40966 51.6646ZM4.89479 49.0528C4.93255 49.8099 5.26749 50.3688 5.55381 50.7399C5.80525 51.0657 6.14335 51.3983 6.40966 51.6646L9.23809 48.8362C9.08097 48.6791 8.96675 48.5647 8.87266 48.4659C8.77813 48.3666 8.73644 48.3167 8.72058 48.2962C8.70579 48.277 8.74534 48.3238 8.78976 48.4243C8.84012 48.5382 8.88148 48.6864 8.88982 48.8536L4.89479 49.0528ZM6.14226 46.3032C5.90376 46.5947 5.60045 46.9593 5.38267 47.3086C5.13469 47.7063 4.85703 48.2957 4.89479 49.0528L8.88982 48.8536C8.89816 49.0207 8.87174 49.1723 8.83297 49.2907C8.79877 49.3951 8.76407 49.4456 8.77688 49.425C8.79062 49.403 8.82713 49.3492 8.91132 49.241C8.99511 49.1334 9.09739 49.0082 9.23809 48.8362L6.14226 46.3032ZM10.5886 40.8688L6.14226 46.3032L9.23809 48.8362L13.6844 43.4018L10.5886 40.8688ZM11.6192 40.4419C11.5062 40.1693 11.5039 39.8991 11.544 39.707C11.5749 39.5588 11.6193 39.5126 11.5609 39.6103C11.5066 39.7011 11.4086 39.8429 11.2344 40.0676C11.0626 40.2893 10.8536 40.545 10.5886 40.8688L13.6844 43.4018C14.1612 42.8191 14.6685 42.2074 14.9939 41.6632C15.3208 41.1166 15.8022 40.0882 15.3147 38.9112L11.6192 40.4419ZM10.5886 40.8688C11.0049 40.9104 11.3335 40.9434 11.6118 40.9787C11.8938 41.0144 12.0635 41.0454 12.166 41.0712C12.2764 41.0989 12.2123 41.0977 12.0857 41.0148C11.9215 40.9073 11.7321 40.7146 11.6192 40.4419L15.3147 38.9112C14.8271 37.7342 13.7596 37.3474 13.1419 37.192C12.5271 37.0374 11.7358 36.9636 10.9866 36.8887L10.5886 40.8688ZM3.60198 40.1701L10.5886 40.8688L10.9866 36.8887L4 36.19L3.60198 40.1701ZM0.775646 39.108C1.28429 39.6701 1.89743 39.8905 2.354 39.9964C2.75494 40.0893 3.22722 40.1327 3.60198 40.1701L4 36.19C3.7789 36.1679 3.61806 36.1517 3.48269 36.1348C3.34667 36.1178 3.28281 36.1056 3.25751 36.0998C3.23393 36.0943 3.29414 36.1054 3.39218 36.1551C3.50331 36.2114 3.62915 36.2999 3.74145 36.424L0.775646 39.108ZM0 36.19C0 36.5666 -0.00388527 37.0409 0.0487247 37.4491C0.108632 37.9139 0.266994 38.546 0.775646 39.108L3.74145 36.424C3.85375 36.5481 3.92927 36.6821 3.97424 36.7983C4.01391 36.9008 4.01901 36.9618 4.01591 36.9378C4.01259 36.912 4.00679 36.8473 4.00345 36.7102C4.00012 36.5739 4 36.4122 4 36.19H0ZM0 27.8099V36.19H4V27.8099H0ZM0.775641 24.8919C0.266995 25.454 0.108633 26.086 0.0487247 26.5509C-0.00388527 26.9591 0 27.4333 0 27.8099H4C4 27.5877 4.00012 27.4261 4.00345 27.2897C4.00679 27.1527 4.01259 27.0879 4.01591 27.0622C4.01901 27.0382 4.01391 27.0992 3.97424 27.2017C3.92927 27.3179 3.85375 27.4519 3.74145 27.576L0.775641 24.8919ZM3.60196 23.8298C3.22721 23.8673 2.75493 23.9106 2.35399 24.0036C1.89742 24.1094 1.28429 24.3299 0.775641 24.8919L3.74145 27.576C3.62916 27.7001 3.50332 27.7885 3.39218 27.8448C3.29414 27.8945 3.23393 27.9057 3.2575 27.9002C3.28281 27.8943 3.34666 27.8821 3.48268 27.8651C3.61805 27.8483 3.77889 27.8321 3.99999 27.8099L3.60196 23.8298ZM3.80099 23.8199H3.80097V27.8199H3.80099V23.8199ZM10.5897 23.131L3.60199 23.8298L4 27.8099L10.9878 27.1112L10.5897 23.131ZM11.6203 23.5579C11.7332 23.2852 11.9226 23.0925 12.0868 22.985C12.2134 22.9021 12.2775 22.9009 12.1671 22.9287C12.0646 22.9545 11.8949 22.9854 11.6129 23.0211C11.3347 23.0564 11.0061 23.0894 10.5897 23.131L10.9878 27.1112C11.7369 27.0363 12.5282 26.9625 13.143 26.8078C13.7607 26.6524 14.8283 26.2656 15.3158 25.0886L11.6203 23.5579ZM10.5897 23.131C10.8547 23.4549 11.0637 23.7105 11.2355 23.9322C11.4097 24.1569 11.5078 24.2987 11.562 24.3895C11.6205 24.4872 11.576 24.441 11.5451 24.2928C11.505 24.1008 11.5073 23.8306 11.6203 23.5579L15.3158 25.0886C15.8033 23.9116 15.3219 22.8833 14.9951 22.3366C14.6697 21.7925 14.1623 21.1808 13.6856 20.5981L10.5897 23.131ZM6.1424 17.6954L10.5897 23.131L13.6856 20.5981L9.23823 15.1624L6.1424 17.6954ZM4.89493 14.9458C4.85717 15.7029 5.13483 16.2924 5.38281 16.6901C5.60059 17.0393 5.90391 17.4039 6.1424 17.6954L9.23823 15.1624C9.09753 14.9905 8.99525 14.8653 8.91146 14.7576C8.82727 14.6494 8.79076 14.5957 8.77702 14.5736C8.76421 14.5531 8.79891 14.6035 8.83311 14.708C8.87188 14.8264 8.8983 14.9779 8.88996 15.1451L4.89493 14.9458ZM6.4098 12.334C6.14349 12.6003 5.80539 12.9329 5.55395 13.2588C5.26762 13.6298 4.93269 14.1887 4.89493 14.9458L8.88996 15.1451C8.88162 15.3122 8.84026 15.4604 8.7899 15.5743C8.74548 15.6749 8.70593 15.7216 8.72072 15.7025C8.73658 15.6819 8.77827 15.632 8.8728 15.5327C8.96689 15.434 9.08111 15.3196 9.23823 15.1624L6.4098 12.334ZM12.3354 6.40843L6.4098 12.334L9.23823 15.1624L15.1638 9.23685L12.3354 6.40843ZM14.9472 4.89355C14.1901 4.93131 13.6312 5.26625 13.2602 5.55257C12.9343 5.80402 12.6017 6.14211 12.3354 6.40843L15.1638 9.23685C15.3209 9.07973 15.4353 8.96551 15.5341 8.87143C15.6334 8.77689 15.6833 8.73521 15.7038 8.71934C15.723 8.70455 15.6762 8.7441 15.5757 8.78852C15.4618 8.83888 15.3136 8.88025 15.1465 8.88858L14.9472 4.89355ZM17.6968 6.14102C17.4053 5.90253 17.0407 5.59921 16.6914 5.38144C16.2937 5.13345 15.7043 4.85579 14.9472 4.89355L15.1465 8.88858C14.9793 8.89692 14.8278 8.87051 14.7093 8.83173C14.6049 8.79753 14.5545 8.76284 14.575 8.77564C14.597 8.78938 14.6508 8.8259 14.759 8.91009C14.8667 8.99388 14.9918 9.09615 15.1638 9.23685L17.6968 6.14102ZM23.1313 10.5874L17.6968 6.14103L15.1638 9.23685L20.5983 13.6833L23.1313 10.5874ZM23.0648 10.5353L23.0648 10.5353L20.6648 13.7353L20.6648 13.7354L23.0648 10.5353ZM23.5581 11.618C23.8308 11.505 24.101 11.5027 24.2931 11.5428C24.4413 11.5737 24.4874 11.6181 24.3898 11.5597C24.299 11.5055 24.1572 11.4074 23.9325 11.2332C23.7108 11.0614 23.4551 10.8524 23.1313 10.5874L20.5983 13.6833C21.181 14.16 21.7927 14.6674 22.3369 14.9928C22.8835 15.3196 23.9119 15.801 25.0889 15.3135L23.5581 11.618ZM23.1313 10.5874C23.0896 11.0038 23.0566 11.3323 23.0214 11.6106C22.9856 11.8926 22.9547 12.0623 22.9289 12.1648C22.9011 12.2752 22.9023 12.2111 22.9853 12.0845C23.0928 11.9203 23.2854 11.7309 23.5581 11.618L25.0889 15.3135C26.2659 14.826 26.6526 13.7584 26.808 13.1407C26.9627 12.5259 27.0365 11.7346 27.1114 10.9854L23.1313 10.5874ZM23.8298 3.60198L23.1313 10.5874L27.1114 10.9854L27.81 4L23.8298 3.60198ZM23.8199 3.80097V3.80099H27.8199V3.80097H23.8199ZM24.892 0.775641C24.3299 1.28428 24.1094 1.89742 24.0036 2.35399C23.9106 2.75493 23.8673 3.22721 23.8298 3.60196L27.81 3.99999C27.8321 3.77889 27.8483 3.61805 27.8652 3.48268C27.8821 3.34666 27.8943 3.28281 27.9002 3.25751C27.9057 3.23393 27.8945 3.29414 27.8449 3.39218C27.7885 3.50332 27.7001 3.62916 27.576 3.74145L24.892 0.775641ZM27.81 0C27.4333 0 26.9591 -0.00388527 26.5509 0.0487247C26.086 0.108633 25.454 0.266995 24.892 0.775641L27.576 3.74145C27.4519 3.85375 27.3179 3.92927 27.2017 3.97424C27.0992 4.01391 27.0382 4.01901 27.0622 4.01591C27.0879 4.01259 27.1527 4.00679 27.2897 4.00345C27.4261 4.00012 27.5878 4 27.81 4V0ZM36.19 0H27.81V4H36.19V0ZM39.108 0.775645C38.546 0.266993 37.9139 0.108632 37.4491 0.0487247C37.0409 -0.00388527 36.5666 0 36.19 0V4C36.4122 4 36.5739 4.00012 36.7102 4.00345C36.8473 4.00679 36.912 4.01259 36.9378 4.01591C36.9618 4.01901 36.9008 4.01391 36.7983 3.97424C36.6821 3.92927 36.5481 3.85375 36.424 3.74145L39.108 0.775645ZM42 32C42 37.5228 37.5229 42 32 42V46C39.732 46 46 39.732 46 32H42ZM32 22C37.5229 22 42 26.4771 42 32H46C46 24.268 39.732 18 32 18V22ZM22 32C22 26.4771 26.4772 22 32 22V18C24.268 18 18 24.268 18 32H22ZM32 42C26.4772 42 22 37.5228 22 32H18C18 39.732 24.268 46 32 46V42Z" fill="white"/>
</svg>
