<svg width="66" height="60" viewBox="0 0 66 60" fill="none" xmlns="http://www.w3.org/2000/svg">
<path fill-rule="evenodd" clip-rule="evenodd" d="M57.4895 30C57.4895 29.6385 57.2715 29.3764 56.8355 28.8523C53.9176 25.3441 44.3512 15 33 15C21.6489 15 12.0825 25.3441 9.16453 28.8523C8.72859 29.3764 8.51062 29.6385 8.51062 30C8.51062 30.3615 8.72859 30.6236 9.16453 31.1477C12.0825 34.6559 21.6489 45 33 45C44.3512 45 53.9176 34.6559 56.8355 31.1477C57.2715 30.6236 57.4895 30.3615 57.4895 30ZM33.0001 37.5C37.5564 37.5 41.2501 34.1421 41.2501 30C41.2501 25.8579 37.5564 22.5 33.0001 22.5C28.4437 22.5 24.7501 25.8579 24.7501 30C24.7501 34.1421 28.4437 37.5 33.0001 37.5Z" fill="white"/>
</svg>
