<svg width="152" height="45" viewBox="0 0 152 45" fill="none" xmlns="http://www.w3.org/2000/svg">
<g clip-path="url(#clip0_37_99)">
<path fill-rule="evenodd" clip-rule="evenodd" d="M39.15 23.512C40.9643 23.4885 42.7132 24.2565 44.0138 25.6481C45.3145 27.0397 46.061 28.9414 46.09 30.937C46.0637 32.9345 45.3183 34.8391 44.0173 36.233C42.7164 37.6269 40.966 38.3965 39.15 38.373C37.3323 38.3994 35.5793 37.6312 34.2762 36.2369C32.9731 34.8427 32.2263 32.9365 32.2 30.937C32.229 28.9395 32.9769 27.0361 34.2797 25.6442C35.5825 24.2523 37.334 23.4855 39.15 23.512ZM106.19 23.512C107.01 23.512 107.81 23.655 108.56 23.952L99.9 34.083C99.4703 33.1017 99.248 32.0262 99.25 30.937C99.279 28.9414 100.025 27.0397 101.326 25.6481C102.627 24.2565 104.376 23.4885 106.19 23.512ZM12.66 44.5C16.16 44.5 19.41 43.004 21.82 40.298L21.41 39.858L21.84 40.276L26.9 34.314C27.6376 37.2585 29.238 39.8529 31.4529 41.6947C33.6679 43.5364 36.3735 44.5225 39.15 44.5C42.85 44.5 46.19 42.773 48.51 40.034L48.52 40.045L61.24 25.085C62.0828 24.1223 63.2301 23.5534 64.444 23.496C65.6579 23.4387 66.8453 23.8974 67.76 24.777C68.2049 25.2062 68.5672 25.7291 68.8253 26.3149C69.0835 26.9006 69.2323 27.5373 69.2631 28.1874C69.2938 28.8375 69.2059 29.4877 69.0044 30.0998C68.8029 30.7118 68.492 31.2733 68.09 31.751L67.13 32.895L57.58 44.115H65.31L68.64 40.21L70.27 38.285L72.3 35.909L72.32 35.876L81.39 25.206C82.2292 24.2453 83.3743 23.6798 84.5846 23.6285C85.7949 23.5773 86.9761 24.0441 87.88 24.931C88.3217 25.3566 88.6821 25.8746 88.9402 26.4549C89.1983 27.0351 89.3489 27.666 89.3834 28.3108C89.4178 28.9557 89.3353 29.6016 89.1408 30.2111C88.9462 30.8206 88.6434 31.3814 88.25 31.861L77.83 44.115H85.56L88.96 40.122L92.41 36.052V36.063L92.47 35.986L93.94 34.27C94.6701 37.2227 96.2674 39.8269 98.483 41.6772C100.699 43.5275 103.408 44.5199 106.19 44.5C109.69 44.5 112.94 43.004 115.35 40.298L114.67 39.55L115.4 40.243L120.41 34.215C121.132 37.1816 122.728 39.8008 124.948 41.6622C127.169 43.5235 129.888 44.5216 132.68 44.5V38.373C130.864 38.3965 129.114 37.6269 127.813 36.233C126.512 34.8391 125.766 32.9345 125.74 30.937V23.27H132.68V17.143H125.74V6.66H120.02V25.492L111.13 36.184C110.242 37.1516 109.134 37.8387 107.922 38.1735C106.71 38.5083 105.438 38.4784 104.24 38.087L116.94 23.193L114.92 21.125C112.545 18.7086 109.425 17.3722 106.19 17.385C102.37 17.385 98.95 19.222 96.63 22.104L96.59 22.06L94.4 24.634C93.8218 23.0165 92.9034 21.5727 91.72 20.421C89.6723 18.4314 86.9987 17.4011 84.27 17.55C81.764 17.6672 79.381 18.7767 77.56 20.674H77.55L77.37 20.872L77.21 21.037L77.14 21.125L77.11 21.158L74.29 24.469C73.7118 22.8515 72.7934 21.4077 71.61 20.256C69.5619 18.2683 66.8877 17.2417 64.16 17.396C61.4865 17.516 58.9579 18.7649 57.1 20.883L57.02 20.971L56.99 21.004L51.39 27.582C50.6529 24.6393 49.054 22.0463 46.841 20.2047C44.6281 18.3631 41.9248 17.3759 39.15 17.396C35.28 17.396 31.82 19.266 29.5 22.192L24.96 27.516L20.19 33.126L17.61 36.162C16.9585 36.8725 16.1858 37.4345 15.3364 37.8158C14.4869 38.1971 13.5774 38.3902 12.66 38.384C10.844 38.4075 9.09363 37.6379 7.79267 36.244C6.49171 34.8501 5.74635 32.9455 5.72 30.948C5.74897 28.9524 6.49549 27.0507 7.79616 25.6591C9.09683 24.2675 10.8457 23.4995 12.66 23.523C14 23.5203 15.3125 23.9408 16.4416 24.7344C17.5708 25.528 18.4691 26.6614 19.03 28L23.07 23.248C21.8808 21.4346 20.3167 19.9583 18.5067 18.9408C16.6967 17.9233 14.6927 17.3938 12.66 17.396C5.68 17.385 0 23.468 0 30.937C0 38.417 5.68 44.5 12.66 44.5ZM144.82 5.593C145.465 6.62718 146.291 7.50967 147.25 8.189C146.291 8.8681 145.465 9.75063 144.82 10.785C144.177 9.7553 143.355 8.87657 142.4 8.2C143.359 7.52113 144.185 6.63856 144.83 5.604M143.39 15.889H146.27C146.27 12.501 148.84 9.729 152.01 9.729V6.66C150.505 6.68056 149.055 6.04343 147.977 4.88848C146.898 3.73354 146.281 2.15519 146.26 0.5L143.38 0.5C143.38 3.888 140.81 6.66 137.64 6.66V9.729C140.81 9.729 143.39 12.479 143.39 15.878" fill="#F6F6F6"/>
</g>
<defs>
<clipPath id="clip0_37_99">
<rect width="152" height="44" fill="white" transform="translate(0 0.5)"/>
</clipPath>
</defs>
</svg>
