<svg width="151" height="45" viewBox="0 0 151 45" fill="none" xmlns="http://www.w3.org/2000/svg">
<g clip-path="url(#clip0_35_95)">
<path d="M138.195 21.8481H132.97C129.599 21.8481 127.745 24.2926 127.745 28.5296V43.6852H117.633V21.8481H113.419C110.049 21.8481 108.195 24.2926 108.195 28.5296V43.6852H98.0824V13.7H108.195V18.263C109.88 14.6778 112.071 13.7 115.442 13.7H127.745V18.263C129.431 14.6778 131.622 13.7 134.992 13.7H138.363L138.195 21.8481ZM95.7228 30.9741H74.824C75.3296 34.3963 77.5206 36.1889 81.0599 36.1889C83.7565 36.1889 85.6105 35.0481 86.2846 33.2556L95.2172 35.7C93.0262 40.9148 87.6329 44.0111 81.0599 44.0111C70.1049 44.0111 65.0487 35.7 65.0487 28.5296C65.0487 21.5222 69.4307 13.2111 80.3858 13.2111C92.015 13.2111 95.8914 21.6852 95.8914 28.0407C95.8914 29.5074 95.8914 30.3222 95.7228 30.9741ZM86.1161 25.2704C85.9476 22.663 83.9251 20.3815 80.5543 20.3815C77.3521 20.3815 75.4981 21.6852 74.824 25.2704H86.1161ZM47.5206 43.6852H56.2846L67.4082 13.863H57.2959L51.9026 31.3L46.5094 13.7H36.397L47.5206 43.6852ZM6.397 43.6852H16.3408V21.8481H25.9476V43.6852H35.8914V13.7H16.3408V11.9074C16.3408 9.95185 17.8577 8.64815 20.0487 8.64815H25.9476V0.5H18.5318C11.2846 0.5 6.397 4.9 6.397 11.2556V13.7H0.666656V21.8481H6.397V43.6852Z" fill="#404145"/>
<path d="M144.431 44.5001C147.802 44.5001 150.667 41.7297 150.667 38.4704C150.667 35.2112 147.802 32.4408 144.431 32.4408C141.06 32.4408 138.195 35.2112 138.195 38.4704C138.195 41.7297 141.06 44.5001 144.431 44.5001Z" fill="#1DBF73"/>
</g>
<defs>
<clipPath id="clip0_35_95">
<rect width="150" height="44" fill="white" transform="translate(0.666656 0.5)"/>
</clipPath>
</defs>
</svg>
