<svg width="72" height="63" viewBox="0 0 72 63" fill="none" xmlns="http://www.w3.org/2000/svg">
<path d="M15.1707 15.2704V18.2261H8.22161V21.4155H13.4194V24.2846H8.22161V30.4061H4.06516V15.2704H15.1707Z" fill="#00BF63"/>
<path d="M21.219 20.3813C21.7042 19.7198 22.3107 19.1994 23.0384 18.8194C23.7677 18.4382 24.5782 18.2472 25.4702 18.2472V22.1479H24.3283C23.2906 22.1479 22.5126 22.3461 21.9941 22.7412C21.4772 23.1369 21.219 23.8306 21.219 24.8228V30.4062H17.0626V18.3758H21.219V20.3813Z" fill="black"/>
<path d="M39.9504 24.198C39.9504 24.5432 39.9267 24.9015 39.8794 25.2743H30.4748C30.5399 26.0217 30.8106 26.5933 31.2884 26.9884C31.7676 27.3841 32.3549 27.5816 33.0515 27.5816C34.087 27.5816 34.8073 27.1945 35.2141 26.4188H39.6338C39.4068 27.2082 38.9978 27.9196 38.4061 28.5529C37.8159 29.1849 37.0756 29.681 36.1844 30.0413C35.2947 30.4002 34.2985 30.5794 33.1965 30.5794C31.8689 30.5794 30.6864 30.3287 29.6495 29.826C28.6118 29.322 27.8012 28.6028 27.2177 27.6683C26.6357 26.7338 26.345 25.6418 26.345 24.3923C26.345 23.1415 26.632 22.0481 27.2059 21.1136C27.7813 20.1791 28.5874 19.4612 29.6228 18.9585C30.6597 18.4545 31.8512 18.2025 33.1965 18.2025C34.5078 18.2025 35.6734 18.448 36.6933 18.9375C37.7146 19.4258 38.5126 20.1234 39.0865 21.0296C39.6619 21.9346 39.9504 22.9905 39.9504 24.198ZM35.6993 23.2268C35.6993 22.5955 35.4552 22.0928 34.9685 21.72C34.4834 21.346 33.8769 21.1583 33.1492 21.1583C32.451 21.1583 31.863 21.3381 31.386 21.6964C30.9082 22.0554 30.6124 22.5653 30.4985 23.2268H35.6993Z" fill="black"/>
<path d="M54.6261 24.198C54.6261 24.5432 54.6024 24.9015 54.5551 25.2743H45.1505C45.2156 26.0217 45.4863 26.5933 45.9641 26.9884C46.4433 27.3841 47.0305 27.5816 47.7272 27.5816C48.7626 27.5816 49.483 27.1945 49.8898 26.4188H54.3095C54.0825 27.2082 53.6735 27.9196 53.0818 28.5529C52.4916 29.1849 51.7513 29.681 50.8601 30.0413C49.9704 30.4002 48.9742 30.5794 47.8722 30.5794C46.5446 30.5794 45.362 30.3287 44.3251 29.826C43.2875 29.322 42.4769 28.6028 41.8934 27.6683C41.3113 26.7338 41.0207 25.6418 41.0207 24.3923C41.0207 23.1415 41.3076 22.0481 41.8816 21.1136C42.457 20.1791 43.2631 19.4612 44.2985 18.9585C45.3354 18.4545 46.5269 18.2025 47.8722 18.2025C49.1835 18.2025 50.3491 18.448 51.3689 18.9375C52.3903 19.4258 53.1883 20.1234 53.7622 21.0296C54.3376 21.9346 54.6261 22.9905 54.6261 24.198ZM50.3749 23.2268C50.3749 22.5955 50.1309 22.0928 49.6442 21.72C49.1591 21.346 48.5526 21.1583 47.8249 21.1583C47.1267 21.1583 46.5387 21.3381 46.0617 21.6964C45.5839 22.0554 45.2881 22.5653 45.1742 23.2268H50.3749Z" fill="black"/>
<path d="M66.9706 21.308V24.3687H56.2792V21.308H66.9706Z" fill="black"/>
<path d="M30.4498 31.7765L26.0034 46.9122H20.9742L18.2526 36.953L15.4333 46.9122H10.4041L6.07904 31.7765H10.5254L12.9808 42.7936L16.0161 31.7765H20.5837L23.5007 42.7936L25.9797 31.7765H30.4498Z" fill="#FF914D"/>
<path d="M38.4188 47.0855C37.0913 47.0855 35.8968 46.8348 34.8363 46.3321C33.775 45.8281 32.9407 45.1089 32.3335 44.1744C31.7256 43.2399 31.4224 42.1479 31.4224 40.8984C31.4224 39.6613 31.73 38.572 32.3454 37.6302C32.9607 36.6892 33.8023 35.9673 34.8718 35.4646C35.9405 34.9606 37.1393 34.7086 38.4691 34.7086C39.7959 34.7086 40.9941 34.9606 42.0635 35.4646C43.1322 35.9673 43.9746 36.6892 44.5899 37.6302C45.2067 38.572 45.5159 39.6613 45.5159 40.8984C45.5159 42.1341 45.203 43.2228 44.5781 44.1639C43.9546 45.1056 43.1048 45.8281 42.028 46.3321C40.9512 46.8348 39.7479 47.0855 38.4188 47.0855ZM38.4188 43.8935C39.2131 43.8935 39.8899 43.6356 40.4482 43.1191C41.0059 42.6013 41.2854 41.8611 41.2854 40.8984C41.2854 39.9343 41.014 39.1941 40.4719 38.6776C39.9291 38.1598 39.2619 37.9006 38.4691 37.9006C37.6585 37.9006 36.9855 38.1566 36.4515 38.6671C35.9168 39.1764 35.6498 39.9206 35.6498 40.8984C35.6498 41.8611 35.9131 42.6013 36.4397 43.1191C36.9663 43.6356 37.626 43.8935 38.4188 43.8935Z" fill="black"/>
<path d="M51.5901 36.8873C52.0753 36.2258 52.6818 35.7054 53.4095 35.3254C54.1387 34.9441 54.9493 34.7532 55.8413 34.7532V38.6539H54.6994C53.6617 38.6539 52.8837 38.8521 52.3652 39.2472C51.8483 39.6429 51.5901 40.3365 51.5901 41.3288V46.9122H47.4337V34.8818H51.5901V36.8873Z" fill="black"/>
<path d="M65.8277 46.9121L61.6979 41.8669V46.9121H57.5414V30.9574H61.6979V39.7748L65.8041 34.8818H70.9309L65.2923 40.9193L70.9782 46.9121H65.8277Z" fill="black"/>
</svg>
