<svg width="135" height="45" viewBox="0 0 135 45" fill="none" xmlns="http://www.w3.org/2000/svg">
<path d="M31.6437 13.9591C29.2643 11.7194 26.7226 13.169 25.1319 14.6662L17.6192 21.7385L10.1056 28.8109C8.51496 30.308 6.85007 32.5828 9.35432 34.9398C11.8586 37.2975 14.2752 35.73 15.8655 34.2327L23.3788 27.1605L30.8921 20.0884C32.4829 18.591 34.0227 16.1985 31.6437 13.9591Z" fill="#FC5656"/>
<path d="M17.2876 13.3798L20.4694 16.3746L23.708 13.3261C23.9279 13.1186 24.1512 12.9261 24.3758 12.7446C24.0366 11.1339 23.0602 9.67773 20.4679 9.67773C17.8706 9.67773 16.8954 11.1396 16.5583 12.7538C16.8006 12.9512 17.0427 13.1491 17.2876 13.3798Z" fill="#FC5656"/>
<path d="M23.7063 35.6265L20.4697 32.5797L17.2896 35.5728C17.0481 35.8003 16.8078 36.0081 16.5686 36.2033C16.9332 37.8453 17.9653 39.3492 20.4684 39.3492C22.978 39.3492 24.0087 37.8372 24.371 36.1899C24.1485 36.0096 23.9255 35.8329 23.7063 35.6265Z" fill="#FC5656"/>
<path d="M15.9383 20.6401H9.80421C7.55494 20.6401 4.66864 21.307 4.66864 24.474C4.66864 26.8371 6.27548 27.8075 8.02575 28.1484C8.23298 27.9233 15.9383 20.6401 15.9383 20.6401Z" fill="#FC5656"/>
<path d="M32.9233 20.7938C32.7291 21.0064 25.0077 28.308 25.0077 28.308H31.0547C33.304 28.308 36.1903 27.8078 36.1903 24.4741C36.1903 22.0296 34.6378 21.1112 32.9233 20.7938Z" fill="#FC5656"/>
<path d="M17.9481 18.7448L19.0439 17.7132L15.8642 14.7198C14.2734 13.2227 11.8571 11.6554 9.35281 14.0126C7.51647 15.7412 7.92434 17.4235 8.89836 18.7892C9.19502 18.7684 17.9481 18.7448 17.9481 18.7448Z" fill="#FC5656"/>
<path d="M22.99 30.2033L21.8913 31.2375L25.1303 34.2861C26.7209 35.7835 29.2626 37.2328 31.6416 34.9934C33.4169 33.3222 33.0095 31.567 32.0281 30.1609C31.7122 30.1823 22.99 30.2033 22.99 30.2033Z" fill="#FC5656"/>
<path d="M99.2719 14.6434C98.7287 14.6434 97.778 14.7713 96.7363 15.1975C95.3782 15.7515 94.6537 16.1777 94.2916 16.7316C92.9333 15.2402 91.1674 14.7713 89.1753 14.7713C83.3345 14.7713 79.1692 19.4167 79.1692 26.0224C79.1692 31.5629 82.3385 35.6543 86.8209 35.6543C88.179 35.6543 89.4016 35.1427 90.8506 33.8644C91.9823 32.8841 92.5258 32.245 92.5258 31.6482C92.5258 31.2219 92.2089 30.9236 91.756 30.9236C91.122 30.9236 90.4429 31.4349 89.5826 31.4349C87.7262 31.4349 86.4584 28.7498 86.4584 24.7863C86.4584 20.823 88.1336 18.138 90.669 18.138C92.3442 18.138 93.612 19.3311 93.612 21.377V33.8217C93.612 35.1852 94.9701 35.5688 97.4604 35.5688C99.9056 35.5688 100.856 35.1427 100.856 33.8217V16.0074C100.856 15.1548 100.268 14.6434 99.2719 14.6434Z" fill="#FC5656"/>
<path d="M71.3367 14.6434C69.5709 14.6434 67.7147 15.2402 66.0844 16.4335C65.179 17.1154 64.4092 17.8824 64.4092 18.5218C64.4092 19.0757 64.8165 19.374 65.4053 19.374C66.4016 19.374 66.7185 18.9905 67.6693 18.9905C68.62 18.9905 69.0728 19.8429 69.0728 21.3346V33.822C69.0728 35.1856 70.4312 35.5692 72.9211 35.5692C75.3661 35.5692 76.3168 35.143 76.3168 33.822V20.1412C76.317 16.902 74.2795 14.6434 71.3367 14.6434Z" fill="#FC5656"/>
<path d="M58.614 14.6434C56.7577 14.6434 55.0824 15.2402 53.4526 16.4335C52.5471 17.1154 51.7774 17.8824 51.7774 18.5218C51.7774 19.0757 52.1846 19.374 52.7735 19.374C53.7693 19.374 54.0866 18.9905 54.9469 18.9905C55.8071 18.9905 56.2599 19.8429 56.2599 21.3346V33.822C56.2599 35.1856 57.618 35.5692 60.1081 35.5692C62.5533 35.5692 63.5038 35.143 63.5038 33.822V20.1412C63.5038 16.902 61.4663 14.6434 58.614 14.6434Z" fill="#FC5656"/>
<path d="M49.1061 14.6434C48.427 14.6434 47.6121 14.7713 46.5704 15.1975C44.3067 16.1351 43.4465 16.7316 43.4465 18.0529V33.8219C43.4465 35.1854 44.8046 35.569 47.2949 35.569C49.7401 35.569 50.6906 35.1428 50.6906 33.8219V16.0074C50.6908 15.1548 50.1022 14.6434 49.1061 14.6434Z" fill="#FC5656"/>
<path d="M128.747 29.8154C126.936 30.2416 126.393 30.3695 125.758 30.3695C124.989 30.3695 124.717 30.1563 124.717 29.3892V18.7346H128.837C129.924 18.7346 130.331 18.3511 130.331 17.3283C130.331 16.4759 129.924 16.0494 128.837 16.0494H124.717V11.9155C124.717 10.6368 124.265 10.1255 123.314 10.1255C122.408 10.1255 121.14 10.8927 118.424 13.0663C115.662 15.2825 114.077 16.7315 114.077 17.7543C114.077 18.3511 114.53 18.7346 115.254 18.7346H117.473V30.2416C117.473 33.6086 119.239 35.5689 122.317 35.5689C124.355 35.5689 125.849 34.8443 127.615 33.5659C129.245 32.3725 130.286 31.4348 130.286 30.6254C130.286 29.9434 129.743 29.5597 128.747 29.8154Z" fill="#FC5656"/>
<path d="M110.41 5.65088C110.048 5.65088 108.916 5.77875 107.874 6.20493C105.61 7.09986 104.751 7.73905 104.751 9.06032V33.8217C104.751 35.1857 106.109 35.5691 108.599 35.5691C111.044 35.5691 111.994 35.1429 111.994 33.8217V7.01472C111.994 6.1622 111.406 5.65088 110.41 5.65088Z" fill="#FC5656"/>
</svg>
